<svg height="830" width="720" xmlns="http://www.w3.org/2000/svg">
<rect height="830" fill="#555" width="720"></rect>
<text fill="#7f7" font-family="Courier New" font-size="12" xml:space="preserve">
<tspan x="10" y="26">2 megabytes installed</tspan>
<tspan x="10" y="42"></tspan>
<tspan x="10" y="58">node_modules</tspan>
<tspan x="10" y="74">└─┬ csv2json@1.3.0 </tspan>
<tspan x="10" y="90">  ├─┬ csv-parser@1.11.0 </tspan>
<tspan x="10" y="106">  │ ├── generate-function@1.1.0 </tspan>
<tspan x="10" y="122">  │ ├─┬ generate-object-property@1.2.0 </tspan>
<tspan x="10" y="138">  │ │ └── is-property@1.0.2 </tspan>
<tspan x="10" y="154">  │ ├── inherits@2.0.3 </tspan>
<tspan x="10" y="170">  │ └─┬ ndjson@1.5.0 </tspan>
<tspan x="10" y="186">  │   ├── json-stringify-safe@5.0.1 </tspan>
<tspan x="10" y="202">  │   └── split2@2.1.1 </tspan>
<tspan x="10" y="218">  ├── event-to-promise@0.7.0 </tspan>
<tspan x="10" y="234">  ├─┬ exec-promise@0.6.1 </tspan>
<tspan x="10" y="250">  │ └── log-symbols@1.0.2 </tspan>
<tspan x="10" y="266">  ├─┬ husky@0.13.3 </tspan>
<tspan x="10" y="282">  │ ├─┬ chalk@1.1.3 </tspan>
<tspan x="10" y="298">  │ │ ├── ansi-styles@2.2.1 </tspan>
<tspan x="10" y="314">  │ │ ├── escape-string-regexp@1.0.5 </tspan>
<tspan x="10" y="330">  │ │ ├─┬ has-ansi@2.0.0 </tspan>
<tspan x="10" y="346">  │ │ │ └── ansi-regex@2.1.1 </tspan>
<tspan x="10" y="362">  │ │ ├── strip-ansi@3.0.1 </tspan>
<tspan x="10" y="378">  │ │ └── supports-color@2.0.0 </tspan>
<tspan x="10" y="394">  │ ├── find-parent-dir@0.3.0 </tspan>
<tspan x="10" y="410">  │ ├─┬ is-ci@1.0.10 </tspan>
<tspan x="10" y="426">  │ │ └── ci-info@1.0.0 </tspan>
<tspan x="10" y="442">  │ └── normalize-path@1.0.0 </tspan>
<tspan x="10" y="458">  ├── minimist@1.2.0 </tspan>
<tspan x="10" y="474">  ├─┬ pump@1.0.2 </tspan>
<tspan x="10" y="490">  │ ├── end-of-stream@1.4.0 </tspan>
<tspan x="10" y="506">  │ └─┬ once@1.4.0 </tspan>
<tspan x="10" y="522">  │   └── wrappy@1.0.2 </tspan>
<tspan x="10" y="538">  ├─┬ pumpify@1.3.5 </tspan>
<tspan x="10" y="554">  │ └─┬ duplexify@3.5.0 </tspan>
<tspan x="10" y="570">  │   ├─┬ end-of-stream@1.0.0 </tspan>
<tspan x="10" y="586">  │   │ └── once@1.3.3 </tspan>
<tspan x="10" y="602">  │   └── stream-shift@1.0.0 </tspan>
<tspan x="10" y="618">  ├─┬ strip-bom-stream@3.0.0 </tspan>
<tspan x="10" y="634">  │ ├── first-chunk-stream@2.0.0 </tspan>
<tspan x="10" y="650">  │ └─┬ strip-bom-buf@1.0.0 </tspan>
<tspan x="10" y="666">  │   └── is-utf8@0.2.1 </tspan>
<tspan x="10" y="682">  └─┬ through2@2.0.3 </tspan>
<tspan x="10" y="698">    ├─┬ readable-stream@2.2.9 </tspan>
<tspan x="10" y="714">    │ ├── buffer-shims@1.0.0 </tspan>
<tspan x="10" y="730">    │ ├── core-util-is@1.0.2 </tspan>
<tspan x="10" y="746">    │ ├── isarray@1.0.0 </tspan>
<tspan x="10" y="762">    │ ├── process-nextick-args@1.0.7 </tspan>
<tspan x="10" y="778">    │ ├── string_decoder@1.0.0 </tspan>
<tspan x="10" y="794">    │ └── util-deprecate@1.0.2 </tspan>
<tspan x="10" y="810">    └── xtend@4.0.1</tspan>
</text>
</svg>
